# Blender v2.81 (sub 16) OBJ File: 'lettersAndNumbers.blend'
# www.blender.org
mtllib 12.mtl
o 12_Text.033
v 0.966000 0.000000 -0.093000
v 0.705000 0.000000 -0.093000
v 0.741102 0.000000 -0.136478
v 0.773481 0.000000 -0.176657
v 0.802250 0.000000 -0.213906
v 0.827519 0.000000 -0.248593
v 0.849398 0.000000 -0.281085
v 0.868000 0.000000 -0.311750
v 0.883435 0.000000 -0.340957
v 0.895815 0.000000 -0.369074
v 0.905250 0.000000 -0.396469
v 0.911852 0.000000 -0.423509
v 0.915731 0.000000 -0.450564
v 0.917000 0.000000 -0.478000
v 0.915256 0.000000 -0.508660
v 0.910134 0.000000 -0.537528
v 0.901797 0.000000 -0.564438
v 0.890407 0.000000 -0.589222
v 0.876129 0.000000 -0.611715
v 0.859125 0.000000 -0.631750
v 0.839558 0.000000 -0.649160
v 0.817593 0.000000 -0.663778
v 0.793391 0.000000 -0.675438
v 0.767116 0.000000 -0.683972
v 0.738931 0.000000 -0.689215
v 0.709000 0.000000 -0.691000
v 0.695329 0.000000 -0.690561
v 0.681796 0.000000 -0.689241
v 0.668375 0.000000 -0.687031
v 0.655037 0.000000 -0.683926
v 0.641755 0.000000 -0.679918
v 0.628500 0.000000 -0.675000
v 0.615245 0.000000 -0.669166
v 0.601963 0.000000 -0.662407
v 0.588625 0.000000 -0.654719
v 0.575204 0.000000 -0.646093
v 0.561671 0.000000 -0.636522
v 0.548000 0.000000 -0.626000
v 0.548000 0.000000 -0.503000
v 0.561648 0.000000 -0.519515
v 0.575102 0.000000 -0.534120
v 0.588375 0.000000 -0.546906
v 0.601481 0.000000 -0.557963
v 0.614435 0.000000 -0.567381
v 0.627250 0.000000 -0.575250
v 0.639940 0.000000 -0.581661
v 0.652519 0.000000 -0.586704
v 0.665000 0.000000 -0.590469
v 0.677398 0.000000 -0.593046
v 0.689727 0.000000 -0.594527
v 0.702000 0.000000 -0.595000
v 0.718377 0.000000 -0.593914
v 0.733931 0.000000 -0.590727
v 0.748547 0.000000 -0.585547
v 0.762111 0.000000 -0.578481
v 0.774509 0.000000 -0.569638
v 0.785625 0.000000 -0.559125
v 0.795346 0.000000 -0.547049
v 0.803556 0.000000 -0.533518
v 0.810141 0.000000 -0.518641
v 0.814986 0.000000 -0.502523
v 0.817977 0.000000 -0.485274
v 0.819000 0.000000 -0.467000
v 0.818667 0.000000 -0.453204
v 0.817667 0.000000 -0.440213
v 0.816000 0.000000 -0.427875
v 0.813667 0.000000 -0.416037
v 0.810667 0.000000 -0.404546
v 0.807000 0.000000 -0.393250
v 0.802667 0.000000 -0.381995
v 0.797667 0.000000 -0.370630
v 0.792000 0.000000 -0.359000
v 0.785667 0.000000 -0.346954
v 0.778667 0.000000 -0.334338
v 0.771000 0.000000 -0.321000
v 0.755585 0.000000 -0.295763
v 0.738514 0.000000 -0.269685
v 0.720047 0.000000 -0.242969
v 0.700444 0.000000 -0.215815
v 0.679967 0.000000 -0.188425
v 0.658875 0.000000 -0.161000
v 0.637429 0.000000 -0.133742
v 0.615889 0.000000 -0.106852
v 0.594516 0.000000 -0.080531
v 0.573569 0.000000 -0.054981
v 0.553311 0.000000 -0.030404
v 0.534000 0.000000 -0.007000
v 0.534000 0.000000 0.000000
v 0.966000 0.000000 0.000000
v 0.300000 0.000000 -0.682000
v 0.202000 0.000000 -0.682000
v 0.202000 0.000000 0.000000
v 0.300000 0.000000 0.000000
vn 0.0000 1.0000 0.0000
usemtl None
s off
f 27//1 25//1 26//1
f 28//1 25//1 27//1
f 29//1 25//1 28//1
f 29//1 24//1 25//1
f 30//1 24//1 29//1
f 30//1 23//1 24//1
f 31//1 23//1 30//1
f 32//1 23//1 31//1
f 32//1 22//1 23//1
f 33//1 22//1 32//1
f 34//1 22//1 33//1
f 34//1 21//1 22//1
f 35//1 21//1 34//1
f 36//1 21//1 35//1
f 36//1 20//1 21//1
f 37//1 20//1 36//1
f 38//1 20//1 37//1
f 38//1 19//1 20//1
f 39//1 40//1 38//1
f 40//1 41//1 38//1
f 41//1 42//1 38//1
f 42//1 43//1 38//1
f 43//1 44//1 38//1
f 44//1 45//1 38//1
f 45//1 46//1 38//1
f 46//1 47//1 38//1
f 47//1 48//1 38//1
f 48//1 49//1 38//1
f 49//1 50//1 38//1
f 50//1 19//1 38//1
f 50//1 51//1 19//1
f 51//1 18//1 19//1
f 52//1 18//1 51//1
f 53//1 18//1 52//1
f 54//1 18//1 53//1
f 54//1 17//1 18//1
f 55//1 17//1 54//1
f 56//1 17//1 55//1
f 57//1 17//1 56//1
f 57//1 16//1 17//1
f 58//1 16//1 57//1
f 59//1 16//1 58//1
f 59//1 15//1 16//1
f 60//1 15//1 59//1
f 61//1 15//1 60//1
f 61//1 14//1 15//1
f 62//1 14//1 61//1
f 63//1 14//1 62//1
f 63//1 13//1 14//1
f 64//1 13//1 63//1
f 65//1 13//1 64//1
f 65//1 12//1 13//1
f 66//1 12//1 65//1
f 67//1 12//1 66//1
f 67//1 11//1 12//1
f 68//1 11//1 67//1
f 69//1 11//1 68//1
f 69//1 10//1 11//1
f 70//1 10//1 69//1
f 71//1 10//1 70//1
f 72//1 10//1 71//1
f 72//1 9//1 10//1
f 73//1 9//1 72//1
f 74//1 9//1 73//1
f 74//1 8//1 9//1
f 75//1 8//1 74//1
f 76//1 8//1 75//1
f 76//1 7//1 8//1
f 77//1 7//1 76//1
f 77//1 6//1 7//1
f 78//1 6//1 77//1
f 78//1 5//1 6//1
f 79//1 5//1 78//1
f 80//1 5//1 79//1
f 80//1 4//1 5//1
f 81//1 4//1 80//1
f 81//1 3//1 4//1
f 82//1 3//1 81//1
f 82//1 2//1 3//1
f 83//1 2//1 82//1
f 84//1 2//1 83//1
f 84//1 1//1 2//1
f 84//1 89//1 1//1
f 85//1 89//1 84//1
f 86//1 89//1 85//1
f 87//1 89//1 86//1
f 88//1 89//1 87//1
f 92//1 90//1 91//1
f 92//1 93//1 90//1
