# Blender v2.81 (sub 16) OBJ File: 'lettersAndNumbers.blend'
# www.blender.org
mtllib 13.mtl
o 13_Text.034
v 0.581000 0.000000 -0.569000
v 0.592449 0.000000 -0.573982
v 0.603343 0.000000 -0.578440
v 0.613750 0.000000 -0.582391
v 0.623741 0.000000 -0.585852
v 0.633384 0.000000 -0.588841
v 0.642750 0.000000 -0.591375
v 0.651907 0.000000 -0.593472
v 0.660926 0.000000 -0.595148
v 0.669875 0.000000 -0.596422
v 0.678824 0.000000 -0.597310
v 0.687843 0.000000 -0.597830
v 0.697000 0.000000 -0.598000
v 0.714447 0.000000 -0.597196
v 0.730741 0.000000 -0.594819
v 0.745813 0.000000 -0.590922
v 0.759593 0.000000 -0.585556
v 0.772012 0.000000 -0.578773
v 0.783000 0.000000 -0.570625
v 0.792488 0.000000 -0.561165
v 0.800407 0.000000 -0.550444
v 0.806687 0.000000 -0.538516
v 0.811259 0.000000 -0.525431
v 0.814053 0.000000 -0.511241
v 0.815000 0.000000 -0.496000
v 0.814063 0.000000 -0.481028
v 0.811250 0.000000 -0.467139
v 0.806563 0.000000 -0.454375
v 0.800000 0.000000 -0.442778
v 0.791562 0.000000 -0.432389
v 0.781250 0.000000 -0.423250
v 0.769063 0.000000 -0.415403
v 0.755000 0.000000 -0.408889
v 0.739062 0.000000 -0.403750
v 0.721250 0.000000 -0.400028
v 0.701563 0.000000 -0.397764
v 0.680000 0.000000 -0.397000
v 0.680000 0.000000 -0.307000
v 0.703249 0.000000 -0.307087
v 0.724495 0.000000 -0.304944
v 0.743734 0.000000 -0.300719
v 0.760963 0.000000 -0.294556
v 0.776178 0.000000 -0.286601
v 0.789375 0.000000 -0.277000
v 0.800552 0.000000 -0.265899
v 0.809704 0.000000 -0.253444
v 0.816828 0.000000 -0.239781
v 0.821921 0.000000 -0.225056
v 0.824980 0.000000 -0.209413
v 0.826000 0.000000 -0.193000
v 0.825115 0.000000 -0.176991
v 0.822505 0.000000 -0.162009
v 0.818234 0.000000 -0.148125
v 0.812370 0.000000 -0.135407
v 0.804979 0.000000 -0.123926
v 0.796125 0.000000 -0.113750
v 0.785876 0.000000 -0.104949
v 0.774296 0.000000 -0.097593
v 0.761453 0.000000 -0.091750
v 0.747412 0.000000 -0.087491
v 0.732239 0.000000 -0.084884
v 0.716000 0.000000 -0.084000
v 0.703499 0.000000 -0.084355
v 0.690991 0.000000 -0.085421
v 0.678469 0.000000 -0.087203
v 0.665926 0.000000 -0.089704
v 0.653355 0.000000 -0.092927
v 0.640750 0.000000 -0.096875
v 0.628103 0.000000 -0.101553
v 0.615407 0.000000 -0.106963
v 0.602656 0.000000 -0.113109
v 0.589843 0.000000 -0.119995
v 0.576959 0.000000 -0.127624
v 0.564000 0.000000 -0.136000
v 0.564000 0.000000 -0.030000
v 0.576249 0.000000 -0.023981
v 0.588491 0.000000 -0.018431
v 0.600719 0.000000 -0.013359
v 0.612926 0.000000 -0.008778
v 0.625105 0.000000 -0.004696
v 0.637250 0.000000 -0.001125
v 0.649353 0.000000 0.001925
v 0.661407 0.000000 0.004444
v 0.673406 0.000000 0.006422
v 0.685343 0.000000 0.007847
v 0.697209 0.000000 0.008710
v 0.709000 0.000000 0.009000
v 0.739699 0.000000 0.007257
v 0.768676 0.000000 0.002139
v 0.795750 0.000000 -0.006188
v 0.820741 0.000000 -0.017556
v 0.843468 0.000000 -0.031799
v 0.863750 0.000000 -0.048750
v 0.881407 0.000000 -0.068243
v 0.896259 0.000000 -0.090111
v 0.908125 0.000000 -0.114188
v 0.916824 0.000000 -0.140306
v 0.922176 0.000000 -0.168299
v 0.924000 0.000000 -0.198000
v 0.923370 0.000000 -0.215491
v 0.921463 0.000000 -0.232847
v 0.918250 0.000000 -0.249891
v 0.913704 0.000000 -0.266444
v 0.907796 0.000000 -0.282332
v 0.900500 0.000000 -0.297375
v 0.891787 0.000000 -0.311398
v 0.881630 0.000000 -0.324222
v 0.870000 0.000000 -0.335672
v 0.856870 0.000000 -0.345569
v 0.842213 0.000000 -0.353738
v 0.826000 0.000000 -0.360000
v 0.840736 0.000000 -0.368701
v 0.853972 0.000000 -0.377861
v 0.865750 0.000000 -0.387563
v 0.876111 0.000000 -0.397889
v 0.885097 0.000000 -0.408924
v 0.892750 0.000000 -0.420750
v 0.899111 0.000000 -0.433451
v 0.904222 0.000000 -0.447111
v 0.908125 0.000000 -0.461813
v 0.910861 0.000000 -0.477639
v 0.912472 0.000000 -0.494674
v 0.913000 0.000000 -0.513000
v 0.911375 0.000000 -0.539190
v 0.906583 0.000000 -0.563685
v 0.898750 0.000000 -0.586375
v 0.888000 0.000000 -0.607148
v 0.874458 0.000000 -0.625894
v 0.858250 0.000000 -0.642500
v 0.839500 0.000000 -0.656857
v 0.818333 0.000000 -0.668852
v 0.794875 0.000000 -0.678375
v 0.769250 0.000000 -0.685315
v 0.741583 0.000000 -0.689560
v 0.712000 0.000000 -0.691000
v 0.699492 0.000000 -0.690811
v 0.687435 0.000000 -0.690241
v 0.675781 0.000000 -0.689281
v 0.664481 0.000000 -0.687926
v 0.653487 0.000000 -0.686168
v 0.642750 0.000000 -0.684000
v 0.632221 0.000000 -0.681415
v 0.621852 0.000000 -0.678407
v 0.611594 0.000000 -0.674969
v 0.601398 0.000000 -0.671093
v 0.591216 0.000000 -0.666772
v 0.581000 0.000000 -0.662000
v 0.300000 0.000000 -0.682000
v 0.202000 0.000000 -0.682000
v 0.202000 0.000000 0.000000
v 0.300000 0.000000 0.000000
vn 0.0000 1.0000 0.0000
usemtl None
s off
f 136//1 134//1 135//1
f 137//1 134//1 136//1
f 138//1 134//1 137//1
f 138//1 133//1 134//1
f 139//1 133//1 138//1
f 140//1 133//1 139//1
f 141//1 133//1 140//1
f 141//1 132//1 133//1
f 142//1 132//1 141//1
f 143//1 132//1 142//1
f 144//1 132//1 143//1
f 144//1 131//1 132//1
f 145//1 131//1 144//1
f 146//1 131//1 145//1
f 146//1 130//1 131//1
f 147//1 130//1 146//1
f 1//1 2//1 147//1
f 2//1 3//1 147//1
f 3//1 4//1 147//1
f 4//1 5//1 147//1
f 5//1 130//1 147//1
f 5//1 6//1 130//1
f 6//1 7//1 130//1
f 7//1 129//1 130//1
f 7//1 8//1 129//1
f 8//1 9//1 129//1
f 9//1 128//1 129//1
f 9//1 10//1 128//1
f 10//1 11//1 128//1
f 11//1 12//1 128//1
f 12//1 127//1 128//1
f 12//1 13//1 127//1
f 13//1 14//1 127//1
f 14//1 126//1 127//1
f 15//1 126//1 14//1
f 16//1 126//1 15//1
f 17//1 126//1 16//1
f 17//1 125//1 126//1
f 18//1 125//1 17//1
f 19//1 125//1 18//1
f 20//1 125//1 19//1
f 20//1 124//1 125//1
f 21//1 124//1 20//1
f 22//1 124//1 21//1
f 22//1 123//1 124//1
f 23//1 123//1 22//1
f 24//1 123//1 23//1
f 24//1 122//1 123//1
f 25//1 122//1 24//1
f 26//1 122//1 25//1
f 26//1 121//1 122//1
f 27//1 121//1 26//1
f 27//1 120//1 121//1
f 28//1 120//1 27//1
f 28//1 119//1 120//1
f 29//1 119//1 28//1
f 29//1 118//1 119//1
f 30//1 118//1 29//1
f 30//1 117//1 118//1
f 31//1 117//1 30//1
f 32//1 117//1 31//1
f 32//1 116//1 117//1
f 33//1 116//1 32//1
f 33//1 115//1 116//1
f 34//1 115//1 33//1
f 35//1 115//1 34//1
f 36//1 115//1 35//1
f 36//1 114//1 115//1
f 37//1 114//1 36//1
f 38//1 114//1 37//1
f 38//1 113//1 114//1
f 38//1 112//1 113//1
f 38//1 111//1 112//1
f 38//1 110//1 111//1
f 38//1 109//1 110//1
f 38//1 108//1 109//1
f 38//1 107//1 108//1
f 38//1 106//1 107//1
f 38//1 39//1 106//1
f 39//1 105//1 106//1
f 40//1 105//1 39//1
f 41//1 105//1 40//1
f 42//1 105//1 41//1
f 42//1 104//1 105//1
f 43//1 104//1 42//1
f 44//1 104//1 43//1
f 44//1 103//1 104//1
f 45//1 103//1 44//1
f 45//1 102//1 103//1
f 46//1 102//1 45//1
f 47//1 102//1 46//1
f 47//1 101//1 102//1
f 48//1 101//1 47//1
f 48//1 100//1 101//1
f 49//1 100//1 48//1
f 49//1 99//1 100//1
f 50//1 99//1 49//1
f 50//1 98//1 99//1
f 51//1 98//1 50//1
f 52//1 98//1 51//1
f 52//1 97//1 98//1
f 53//1 97//1 52//1
f 54//1 97//1 53//1
f 54//1 96//1 97//1
f 75//1 73//1 74//1
f 55//1 96//1 54//1
f 75//1 72//1 73//1
f 56//1 96//1 55//1
f 75//1 71//1 72//1
f 56//1 95//1 96//1
f 57//1 95//1 56//1
f 75//1 70//1 71//1
f 75//1 69//1 70//1
f 58//1 95//1 57//1
f 75//1 68//1 69//1
f 59//1 95//1 58//1
f 75//1 67//1 68//1
f 75//1 66//1 67//1
f 60//1 95//1 59//1
f 60//1 94//1 95//1
f 75//1 65//1 66//1
f 61//1 94//1 60//1
f 75//1 64//1 65//1
f 75//1 63//1 64//1
f 62//1 94//1 61//1
f 75//1 62//1 63//1
f 75//1 94//1 62//1
f 75//1 93//1 94//1
f 75//1 92//1 93//1
f 75//1 91//1 92//1
f 76//1 91//1 75//1
f 77//1 91//1 76//1
f 78//1 91//1 77//1
f 78//1 90//1 91//1
f 79//1 90//1 78//1
f 80//1 90//1 79//1
f 80//1 89//1 90//1
f 81//1 89//1 80//1
f 82//1 89//1 81//1
f 83//1 89//1 82//1
f 83//1 88//1 89//1
f 84//1 88//1 83//1
f 85//1 88//1 84//1
f 85//1 87//1 88//1
f 86//1 87//1 85//1
f 150//1 148//1 149//1
f 150//1 151//1 148//1
