# Blender v2.81 (sub 16) OBJ File: 'lettersAndNumbers.blend'
# www.blender.org
mtllib 14.mtl
o 14_Text.021
v 0.898000 0.000000 -0.691000
v 0.856000 0.000000 -0.691000
v 0.511000 0.000000 -0.269000
v 0.511000 0.000000 -0.224000
v 0.800000 0.000000 -0.224000
v 0.800000 0.000000 0.000000
v 0.898000 0.000000 0.000000
v 0.898000 0.000000 -0.224000
v 0.971000 0.000000 -0.224000
v 0.971000 0.000000 -0.312000
v 0.898000 0.000000 -0.312000
v 0.798000 0.000000 -0.506000
v 0.800000 0.000000 -0.506000
v 0.800000 0.000000 -0.312000
v 0.642000 0.000000 -0.312000
v 0.300000 0.000000 -0.682000
v 0.202000 0.000000 -0.682000
v 0.202000 0.000000 0.000000
v 0.300000 0.000000 0.000000
vn 0.0000 1.0000 0.0000
vn 0.0000 0.0000 1.0000
usemtl None
s off
f 3//1 1//1 2//1
f 3//1 12//1 1//1
f 12//1 13//1 1//1
f 13//1 11//1 1//1
f 3//1 15//1 12//1
f 14//1 11//1 13//1
f 3//1 14//1 15//1
f 3//1 11//1 14//1
f 3//1 10//1 11//1
f 3//1 9//1 10//1
f 4//1 9//1 3//1
f 5//2 9//2 4//2
f 6//1 8//1 5//1
f 8//2 9//2 5//2
f 6//1 7//1 8//1
f 18//1 16//1 17//1
f 18//1 19//1 16//1
