# Blender v2.81 (sub 16) OBJ File: 'icons.blend'
# www.blender.org
mtllib add.mtl
o add_Cube
v -0.012349 0.009703 0.009703
v 0.012349 0.009703 0.009703
v -0.012349 0.009703 -0.009703
v 0.012349 0.009703 -0.009703
v -0.012349 -0.009703 0.009703
v 0.012349 -0.009703 0.009703
v -0.012349 -0.009703 -0.009703
v 0.012349 -0.009703 -0.009703
v 0.012349 -0.058221 -0.009703
v -0.012349 -0.058221 -0.009703
v -0.012349 -0.058221 0.009703
v 0.012349 -0.058221 0.009703
v 0.012349 0.009703 -0.058221
v -0.012349 0.009703 -0.058221
v -0.012349 -0.009703 -0.058221
v 0.012349 -0.009703 -0.058221
v -0.012349 0.058221 -0.009703
v -0.012349 0.058221 0.009703
v 0.012349 0.058221 0.009703
v 0.012349 0.058221 -0.009703
v -0.012349 0.009703 0.058221
v 0.012349 0.009703 0.058221
v 0.012349 -0.009703 0.058221
v -0.012349 -0.009703 0.058221
v -0.004802 -0.000000 -0.105541
v -0.004802 0.020590 -0.103513
v -0.004802 0.040389 -0.097507
v -0.004802 0.058635 -0.087754
v -0.004802 0.074628 -0.074628
v -0.004803 0.087754 -0.058635
v -0.004803 0.097507 -0.040389
v -0.004803 0.103513 -0.020590
v -0.004803 0.105541 -0.000000
v -0.004803 0.103513 0.020590
v -0.004803 0.097507 0.040389
v -0.004803 0.087754 0.058635
v -0.004802 0.074628 0.074628
v -0.004802 0.058635 0.087754
v -0.004802 0.040389 0.097507
v -0.004802 0.020590 0.103513
v -0.004802 -0.000000 0.105541
v -0.004802 -0.020590 0.103513
v -0.004802 -0.040389 0.097507
v -0.004802 -0.058635 0.087754
v -0.004802 -0.074628 0.074628
v -0.004802 -0.087754 0.058635
v -0.004802 -0.097507 0.040389
v -0.004802 -0.103513 0.020590
v -0.004802 -0.105541 -0.000000
v -0.004802 -0.103513 -0.020590
v -0.004802 -0.097507 -0.040389
v -0.004802 -0.087754 -0.058635
v -0.004802 -0.074628 -0.074629
v -0.004802 -0.058635 -0.087754
v -0.004802 -0.040388 -0.097507
v -0.004802 -0.020590 -0.103513
v 0.012654 0.000000 -0.105541
v 0.012654 0.020590 -0.103513
v 0.012654 0.040389 -0.097507
v 0.012654 0.058635 -0.087754
v 0.012654 0.074628 -0.074628
v 0.012654 0.087754 -0.058635
v 0.012654 0.097507 -0.040389
v 0.012654 0.103513 -0.020590
v 0.012654 0.105541 -0.000000
v 0.012654 0.103513 0.020590
v 0.012654 0.097507 0.040389
v 0.012654 0.087754 0.058635
v 0.012654 0.074628 0.074628
v 0.012654 0.058635 0.087754
v 0.012654 0.040389 0.097507
v 0.012654 0.020590 0.103513
v 0.012654 -0.000000 0.105541
v 0.012654 -0.020590 0.103513
v 0.012654 -0.040389 0.097507
v 0.012654 -0.058635 0.087754
v 0.012654 -0.074628 0.074628
v 0.012654 -0.087754 0.058635
v 0.012654 -0.097507 0.040389
v 0.012654 -0.103513 0.020590
v 0.012654 -0.105541 -0.000000
v 0.012654 -0.103513 -0.020590
v 0.012654 -0.097507 -0.040389
v 0.012654 -0.087754 -0.058635
v 0.012654 -0.074628 -0.074629
v 0.012654 -0.058635 -0.087754
v 0.012654 -0.040388 -0.097507
v 0.012654 -0.020590 -0.103513
v -0.004802 -0.000000 -0.091820
v -0.004802 0.017913 -0.090056
v -0.004802 0.035138 -0.084831
v -0.004802 0.051013 -0.076346
v -0.004802 0.064927 -0.064927
v -0.004802 0.076346 -0.051013
v -0.004803 0.084831 -0.035138
v -0.004803 0.090056 -0.017913
v -0.004803 0.091821 -0.000000
v -0.004803 0.090056 0.017913
v -0.004803 0.084831 0.035138
v -0.004802 0.076346 0.051013
v -0.004802 0.064927 0.064927
v -0.004802 0.051013 0.076346
v -0.004802 0.035138 0.084831
v -0.004802 0.017913 0.090056
v -0.004802 -0.000000 0.091821
v -0.004802 -0.017914 0.090056
v -0.004802 -0.035138 0.084831
v -0.004802 -0.051013 0.076346
v -0.004802 -0.064927 0.064927
v -0.004802 -0.076346 0.051013
v -0.004802 -0.084831 0.035138
v -0.004802 -0.090056 0.017913
v -0.004802 -0.091820 -0.000000
v -0.004802 -0.090056 -0.017914
v -0.004802 -0.084831 -0.035138
v -0.004802 -0.076346 -0.051013
v -0.004802 -0.064927 -0.064927
v -0.004802 -0.051013 -0.076346
v -0.004802 -0.035138 -0.084831
v -0.004802 -0.017913 -0.090056
v 0.012654 0.000000 -0.091820
v 0.012654 0.017913 -0.090056
v 0.012654 0.035138 -0.084831
v 0.012654 0.051013 -0.076346
v 0.012654 0.064927 -0.064927
v 0.012654 0.076346 -0.051013
v 0.012654 0.084831 -0.035138
v 0.012654 0.090056 -0.017913
v 0.012654 0.091821 -0.000000
v 0.012654 0.090056 0.017913
v 0.012654 0.084831 0.035138
v 0.012654 0.076346 0.051013
v 0.012654 0.064927 0.064927
v 0.012654 0.051013 0.076346
v 0.012654 0.035138 0.084831
v 0.012654 0.017913 0.090056
v 0.012654 -0.000000 0.091821
v 0.012654 -0.017914 0.090056
v 0.012654 -0.035138 0.084831
v 0.012654 -0.051013 0.076346
v 0.012654 -0.064927 0.064927
v 0.012654 -0.076346 0.051013
v 0.012654 -0.084831 0.035138
v 0.012654 -0.090056 0.017913
v 0.012654 -0.091820 -0.000000
v 0.012654 -0.090056 -0.017914
v 0.012654 -0.084831 -0.035138
v 0.012654 -0.076346 -0.051013
v 0.012654 -0.064927 -0.064927
v 0.012654 -0.051013 -0.076346
v 0.012654 -0.035138 -0.084831
v 0.012654 -0.017913 -0.090056
vt 0.875000 0.750000
vt 0.875000 0.500000
vt 0.875000 0.500000
vt 0.875000 0.750000
vt 0.625000 0.500000
vt 0.375000 0.500000
vt 0.375000 0.500000
vt 0.625000 0.500000
vt 0.625000 0.750000
vt 0.625000 0.750000
vt 0.625000 0.500000
vt 0.875000 0.750000
vt 0.625000 0.750000
vt 0.125000 0.500000
vt 0.375000 0.750000
vt 0.125000 0.750000
vt 0.375000 0.500000
vt 0.375000 0.750000
vt 0.375000 0.250000
vt 0.625000 0.250000
vt 0.125000 0.500000
vt 0.875000 0.500000
vt 0.375000 0.250000
vt 0.625000 0.250000
vt 0.375000 0.000000
vt 0.625000 0.000000
vt 0.625000 0.250000
vt 0.375000 0.250000
vt 0.125000 0.750000
vt 0.125000 0.500000
vt 0.375000 1.000000
vt 0.625000 1.000000
vt 0.625000 1.000000
vt 0.375000 1.000000
vt 0.375000 0.750000
vt 0.625000 1.000000
vt 0.375000 1.000000
vt 0.125000 0.750000
vt 0.000000 0.000000
vt 0.000000 0.000000
vt 0.000000 0.000000
vt 0.000000 0.000000
vt 0.000000 0.000000
vt 0.000000 0.000000
vt 0.000000 0.000000
vt 0.000000 0.000000
vt 0.000000 0.000000
vt 0.000000 0.000000
vt 0.000000 0.000000
vt 0.000000 0.000000
vt 0.000000 0.000000
vt 0.000000 0.000000
vt 0.000000 0.000000
vt 0.000000 0.000000
vt 0.000000 0.000000
vt 0.000000 0.000000
vt 0.000000 0.000000
vt 0.000000 0.000000
vt 0.000000 0.000000
vt 0.000000 0.000000
vt 0.000000 0.000000
vt 0.000000 0.000000
vt 0.000000 0.000000
vt 0.000000 0.000000
vt 0.000000 0.000000
vt 0.000000 0.000000
vt 0.000000 0.000000
vt 0.000000 0.000000
vt 0.000000 0.000000
vt 0.000000 0.000000
vt 0.000000 0.000000
vt 0.000000 0.000000
vt 0.000000 0.000000
vt 0.000000 0.000000
vt 0.000000 0.000000
vt 0.000000 0.000000
vt 0.000000 0.000000
vt 0.000000 0.000000
vt 0.000000 0.000000
vt 0.000000 0.000000
vt 0.000000 0.000000
vt 0.000000 0.000000
vt 0.000000 0.000000
vt 0.000000 0.000000
vt 0.000000 0.000000
vt 0.000000 0.000000
vt 0.000000 0.000000
vt 0.000000 0.000000
vt 0.000000 0.000000
vt 0.000000 0.000000
vt 0.000000 0.000000
vt 0.000000 0.000000
vt 0.000000 0.000000
vt 0.000000 0.000000
vt 0.000000 0.000000
vt 0.000000 0.000000
vt 0.000000 0.000000
vt 0.000000 0.000000
vt 0.000000 0.000000
vt 0.000000 0.000000
vt 0.000000 0.000000
vt 0.000000 0.000000
vt 0.000000 0.000000
vt 0.000000 0.000000
vt 0.000000 0.000000
vt 0.000000 0.000000
vt 0.000000 0.000000
vt 0.000000 0.000000
vt 0.000000 0.000000
vt 0.000000 0.000000
vt 0.000000 0.000000
vt 0.000000 0.000000
vt 0.000000 0.000000
vt 0.000000 0.000000
vt 0.000000 0.000000
vt 0.000000 0.000000
vt 0.000000 0.000000
vt 0.000000 0.000000
vt 0.000000 0.000000
vt 0.000000 0.000000
vt 0.000000 0.000000
vt 0.000000 0.000000
vt 0.000000 0.000000
vt 0.000000 0.000000
vt 0.000000 0.000000
vt 0.000000 0.000000
vt 0.000000 0.000000
vt 0.000000 0.000000
vt 0.000000 0.000000
vt 0.000000 0.000000
vt 0.000000 0.000000
vt 0.000000 0.000000
vt 0.000000 0.000000
vt 0.000000 0.000000
vt 0.000000 0.000000
vt 0.000000 0.000000
vt 0.000000 0.000000
vt 0.000000 0.000000
vt 0.000000 0.000000
vt 0.000000 0.000000
vt 0.000000 0.000000
vt 0.000000 0.000000
vt 0.000000 0.000000
vt 0.000000 0.000000
vt 0.000000 0.000000
vt 0.000000 0.000000
vt 0.000000 0.000000
vt 0.000000 0.000000
vt 0.000000 0.000000
vt 0.000000 0.000000
vt 0.000000 0.000000
vt 0.000000 0.000000
vt 0.000000 0.000000
vt 0.000000 0.000000
vt 0.000000 0.000000
vt 0.000000 0.000000
vt 0.000000 0.000000
vt 0.000000 0.000000
vt 0.000000 0.000000
vt 0.000000 0.000000
vt 0.000000 0.000000
vt 0.000000 0.000000
vt 0.000000 0.000000
vt 0.000000 0.000000
vt 0.000000 0.000000
vt 0.000000 0.000000
vn 1.0000 0.0000 0.0000
vn 0.0000 -1.0000 0.0000
vn -1.0000 -0.0000 0.0000
vn 0.0000 0.0000 -1.0000
vn 0.0000 0.0000 1.0000
vn -0.0000 1.0000 0.0000
vn 0.0000 -0.9952 0.0980
vn 0.0000 0.8819 0.4714
vn 0.0000 -0.9952 -0.0980
vn 0.0000 0.7730 0.6344
vn 0.0000 -0.9569 -0.2903
vn 0.0000 0.6344 0.7730
vn 0.0000 -0.8819 -0.4714
vn 0.0000 0.4714 0.8819
vn 0.0000 0.0980 -0.9952
vn 0.0000 -0.7730 -0.6344
vn 0.0000 0.2903 0.9569
vn 0.0000 0.2903 -0.9569
vn 0.0000 -0.6344 -0.7730
vn 0.0000 0.0980 0.9952
vn 0.0000 0.4714 -0.8819
vn 0.0000 -0.4714 -0.8819
vn 0.0000 -0.0980 0.9952
vn 0.0000 0.6344 -0.7730
vn 0.0000 -0.2903 -0.9569
vn 0.0000 -0.2903 0.9569
vn 0.0000 0.7730 -0.6344
vn 0.0000 -0.0980 -0.9952
vn 0.0000 -0.4714 0.8819
vn 0.0000 0.8819 -0.4714
vn 0.0000 -0.6344 0.7730
vn 0.0000 0.9569 -0.2903
vn 0.0000 -0.7730 0.6344
vn 0.0000 0.9952 -0.0980
vn 0.0000 -0.8819 0.4714
vn 0.0000 0.9952 0.0980
vn 0.0000 -0.9569 0.2903
vn 0.0000 0.9569 0.2903
usemtl WHITE
s off
f 2/1/1 4/2/1 20/3/1 19/4/1
f 8/5/2 7/6/2 15/7/2 16/8/2
f 8/5/1 6/9/1 12/10/1 9/11/1
f 6/9/1 2/1/1 22/12/1 23/13/1
f 3/14/3 7/6/3 5/15/3 1/16/3
f 8/5/1 4/2/1 2/1/1 6/9/1
f 10/17/2 9/11/2 12/10/2 11/18/2
f 7/6/4 8/5/4 9/11/4 10/17/4
f 6/9/5 5/15/5 11/18/5 12/10/5
f 5/15/3 7/6/3 10/17/3 11/18/3
f 14/19/4 13/20/4 16/8/4 15/7/4
f 7/6/3 3/14/3 14/21/3 15/7/3
f 4/2/1 8/5/1 16/8/1 13/22/1
f 3/23/6 4/24/6 13/20/6 14/19/6
f 18/25/6 19/26/6 20/27/6 17/28/6
f 3/14/3 1/16/3 18/29/3 17/30/3
f 4/24/4 3/23/4 17/28/4 20/27/4
f 1/31/5 2/32/5 19/33/5 18/34/5
f 24/35/5 23/13/5 22/36/5 21/37/5
f 5/15/2 6/9/2 23/13/2 24/35/2
f 2/32/6 1/31/6 21/37/6 22/36/6
f 1/16/3 5/15/3 24/35/3 21/38/3
f 48/39/7 49/40/7 81/41/7 80/42/7
f 35/43/8 36/44/8 68/45/8 67/46/8
f 49/40/9 50/47/9 82/48/9 81/41/9
f 36/44/10 37/49/10 69/50/10 68/45/10
f 50/47/11 51/51/11 83/52/11 82/48/11
f 37/49/12 38/53/12 70/54/12 69/50/12
f 51/51/13 52/55/13 84/56/13 83/52/13
f 38/53/14 39/57/14 71/58/14 70/54/14
f 25/59/15 26/60/15 58/61/15 57/62/15
f 52/55/16 53/63/16 85/64/16 84/56/16
f 39/57/17 40/65/17 72/66/17 71/58/17
f 26/60/18 27/67/18 59/68/18 58/61/18
f 53/63/19 54/69/19 86/70/19 85/64/19
f 40/65/20 41/71/20 73/72/20 72/66/20
f 27/67/21 28/73/21 60/74/21 59/68/21
f 54/69/22 55/75/22 87/76/22 86/70/22
f 41/71/23 42/77/23 74/78/23 73/72/23
f 28/73/24 29/79/24 61/80/24 60/74/24
f 55/75/25 56/81/25 88/82/25 87/76/25
f 42/77/26 43/83/26 75/84/26 74/78/26
f 29/79/27 30/85/27 62/86/27 61/80/27
f 56/81/28 25/59/28 57/62/28 88/82/28
f 43/83/29 44/87/29 76/88/29 75/84/29
f 30/85/30 31/89/30 63/90/30 62/86/30
f 44/87/31 45/91/31 77/92/31 76/88/31
f 31/89/32 32/93/32 64/94/32 63/90/32
f 45/91/33 46/95/33 78/96/33 77/92/33
f 32/93/34 33/97/34 65/98/34 64/94/34
f 46/95/35 47/99/35 79/100/35 78/96/35
f 33/97/36 34/101/36 66/102/36 65/98/36
f 47/99/37 48/39/37 80/42/37 79/100/37
f 34/101/38 35/43/38 67/46/38 66/102/38
f 112/103/34 144/104/34 145/105/34 113/106/34
f 99/107/13 131/108/13 132/109/13 100/110/13
f 113/106/36 145/105/36 146/111/36 114/112/36
f 100/110/16 132/109/16 133/113/16 101/114/16
f 114/112/38 146/111/38 147/115/38 115/116/38
f 101/114/19 133/113/19 134/117/19 102/118/19
f 115/116/8 147/115/8 148/119/8 116/120/8
f 102/118/22 134/117/22 135/121/22 103/122/22
f 89/123/23 121/124/23 122/125/23 90/126/23
f 116/120/10 148/119/10 149/127/10 117/128/10
f 103/122/25 135/121/25 136/129/25 104/130/25
f 90/126/26 122/125/26 123/131/26 91/132/26
f 117/128/12 149/127/12 150/133/12 118/134/12
f 104/130/28 136/129/28 137/135/28 105/136/28
f 91/132/29 123/131/29 124/137/29 92/138/29
f 118/134/14 150/133/14 151/139/14 119/140/14
f 105/136/15 137/135/15 138/141/15 106/142/15
f 92/138/31 124/137/31 125/143/31 93/144/31
f 119/140/17 151/139/17 152/145/17 120/146/17
f 106/142/18 138/141/18 139/147/18 107/148/18
f 93/144/33 125/143/33 126/149/33 94/150/33
f 120/146/20 152/145/20 121/124/20 89/123/20
f 107/148/21 139/147/21 140/151/21 108/152/21
f 94/150/35 126/149/35 127/153/35 95/154/35
f 108/152/24 140/151/24 141/155/24 109/156/24
f 95/154/37 127/153/37 128/157/37 96/158/37
f 109/156/27 141/155/27 142/159/27 110/160/27
f 96/158/7 128/157/7 129/161/7 97/162/7
f 110/160/30 142/159/30 143/163/30 111/164/30
f 97/162/9 129/161/9 130/165/9 98/166/9
f 111/164/32 143/163/32 144/104/32 112/103/32
f 98/166/11 130/165/11 131/108/11 99/107/11
f 26/60/3 25/59/3 89/123/3 90/126/3
f 27/67/3 26/60/3 90/126/3 91/132/3
f 28/73/3 27/67/3 91/132/3 92/138/3
f 29/79/3 28/73/3 92/138/3 93/144/3
f 30/85/3 29/79/3 93/144/3 94/150/3
f 31/89/3 30/85/3 94/150/3 95/154/3
f 32/93/3 31/89/3 95/154/3 96/158/3
f 33/97/3 32/93/3 96/158/3 97/162/3
f 34/101/3 33/97/3 97/162/3 98/166/3
f 35/43/3 34/101/3 98/166/3 99/107/3
f 36/44/3 35/43/3 99/107/3 100/110/3
f 37/49/3 36/44/3 100/110/3 101/114/3
f 38/53/3 37/49/3 101/114/3 102/118/3
f 39/57/3 38/53/3 102/118/3 103/122/3
f 40/65/3 39/57/3 103/122/3 104/130/3
f 41/71/3 40/65/3 104/130/3 105/136/3
f 42/77/3 41/71/3 105/136/3 106/142/3
f 43/83/3 42/77/3 106/142/3 107/148/3
f 44/87/3 43/83/3 107/148/3 108/152/3
f 45/91/3 44/87/3 108/152/3 109/156/3
f 46/95/3 45/91/3 109/156/3 110/160/3
f 47/99/3 46/95/3 110/160/3 111/164/3
f 48/39/3 47/99/3 111/164/3 112/103/3
f 49/40/3 48/39/3 112/103/3 113/106/3
f 50/47/3 49/40/3 113/106/3 114/112/3
f 51/51/3 50/47/3 114/112/3 115/116/3
f 52/55/3 51/51/3 115/116/3 116/120/3
f 53/63/3 52/55/3 116/120/3 117/128/3
f 54/69/3 53/63/3 117/128/3 118/134/3
f 55/75/3 54/69/3 118/134/3 119/140/3
f 56/81/3 55/75/3 119/140/3 120/146/3
f 25/59/3 56/81/3 120/146/3 89/123/3
f 57/62/1 58/61/1 122/125/1 121/124/1
f 58/61/1 59/68/1 123/131/1 122/125/1
f 59/68/1 60/74/1 124/137/1 123/131/1
f 60/74/1 61/80/1 125/143/1 124/137/1
f 61/80/1 62/86/1 126/149/1 125/143/1
f 62/86/1 63/90/1 127/153/1 126/149/1
f 63/90/1 64/94/1 128/157/1 127/153/1
f 64/94/1 65/98/1 129/161/1 128/157/1
f 65/98/1 66/102/1 130/165/1 129/161/1
f 66/102/1 67/46/1 131/108/1 130/165/1
f 67/46/1 68/45/1 132/109/1 131/108/1
f 68/45/1 69/50/1 133/113/1 132/109/1
f 69/50/1 70/54/1 134/117/1 133/113/1
f 70/54/1 71/58/1 135/121/1 134/117/1
f 71/58/1 72/66/1 136/129/1 135/121/1
f 72/66/1 73/72/1 137/135/1 136/129/1
f 73/72/1 74/78/1 138/141/1 137/135/1
f 74/78/1 75/84/1 139/147/1 138/141/1
f 75/84/1 76/88/1 140/151/1 139/147/1
f 76/88/1 77/92/1 141/155/1 140/151/1
f 77/92/1 78/96/1 142/159/1 141/155/1
f 78/96/1 79/100/1 143/163/1 142/159/1
f 79/100/1 80/42/1 144/104/1 143/163/1
f 80/42/1 81/41/1 145/105/1 144/104/1
f 81/41/1 82/48/1 146/111/1 145/105/1
f 82/48/1 83/52/1 147/115/1 146/111/1
f 83/52/1 84/56/1 148/119/1 147/115/1
f 84/56/1 85/64/1 149/127/1 148/119/1
f 85/64/1 86/70/1 150/133/1 149/127/1
f 86/70/1 87/76/1 151/139/1 150/133/1
f 87/76/1 88/82/1 152/145/1 151/139/1
f 88/82/1 57/62/1 121/124/1 152/145/1
