# Blender v2.81 (sub 16) OBJ File: 'icons.blend'
# www.blender.org
mtllib arrow1.mtl
o Circle.001
v -0.532457 0.000000 -0.000000
v 0.014562 0.000000 0.593432
v 0.014562 0.000000 -0.593432
v -0.532457 0.061585 -0.000000
v 0.014562 0.061585 0.593432
v 0.014562 0.061585 -0.593432
v -0.327541 0.000000 -0.000000
v 0.125345 0.000000 0.491312
v 0.125344 0.000000 -0.491312
v -0.327541 0.061585 -0.000000
v 0.125345 0.061585 0.491312
v 0.125344 0.061585 -0.491312
vt 0.000000 0.000000
vt 0.000000 0.000000
vt 0.000000 0.000000
vt 0.000000 0.000000
vt 0.000000 0.000000
vt 0.000000 0.000000
vt 0.000000 0.000000
vt 0.000000 0.000000
vt 0.000000 0.000000
vt 0.000000 0.000000
vt 0.000000 0.000000
vt 0.000000 0.000000
vn -0.7353 0.0000 -0.6778
vn -0.7353 0.0000 0.6778
vn 0.7353 0.0000 0.6778
vn 0.7353 0.0000 -0.6778
vn 0.0000 -1.0000 0.0000
vn 0.0000 1.0000 0.0000
vn 0.6778 0.0000 -0.7353
vn 0.6778 0.0000 0.7353
usemtl None
s off
f 3/1/1 1/2/1 4/3/1 6/4/1
f 1/2/2 2/5/2 5/6/2 4/3/2
f 9/7/3 12/8/3 10/9/3 7/10/3
f 7/10/4 10/9/4 11/11/4 8/12/4
f 2/5/5 1/2/5 7/10/5 8/12/5
f 4/3/6 5/6/6 11/11/6 10/9/6
f 1/2/5 3/1/5 9/7/5 7/10/5
f 6/4/6 4/3/6 10/9/6 12/8/6
f 3/1/7 6/4/7 12/8/7 9/7/7
f 5/6/8 2/5/8 8/12/8 11/11/8
