# Blender v2.81 (sub 16) OBJ File: ''
# www.blender.org
mtllib F.mtl
o F_Text.006
v 0.440000 0.000000 -0.682000
v 0.076000 0.000000 -0.682000
v 0.076000 0.000000 0.000000
v 0.174000 0.000000 0.000000
v 0.174000 0.000000 -0.317000
v 0.440000 0.000000 -0.317000
v 0.440000 0.000000 -0.405000
v 0.174000 0.000000 -0.405000
v 0.174000 0.000000 -0.594000
v 0.440000 0.000000 -0.594000
vn 0.0000 1.0000 0.0000
usemtl None
s off
f 3//1 9//1 2//1
f 9//1 1//1 2//1
f 9//1 10//1 1//1
f 3//1 8//1 9//1
f 3//1 5//1 8//1
f 5//1 7//1 8//1
f 5//1 6//1 7//1
f 3//1 4//1 5//1
