# Blender v2.81 (sub 16) OBJ File: ''
# www.blender.org
mtllib M.mtl
o M_Text.011
v 0.709000 0.000000 -0.682000
v 0.618000 0.000000 -0.682000
v 0.391000 0.000000 -0.402000
v 0.165000 0.000000 -0.682000
v 0.073000 0.000000 -0.682000
v 0.073000 0.000000 0.000000
v 0.171000 0.000000 0.000000
v 0.171000 0.000000 -0.531000
v 0.173000 0.000000 -0.531000
v 0.383000 0.000000 -0.267000
v 0.399000 0.000000 -0.267000
v 0.609000 0.000000 -0.531000
v 0.611000 0.000000 -0.531000
v 0.611000 0.000000 0.000000
v 0.709000 0.000000 0.000000
vn 0.0000 1.0000 0.0000
usemtl None
s off
f 6//1 4//1 5//1
f 6//1 8//1 4//1
f 8//1 9//1 4//1
f 9//1 3//1 4//1
f 3//1 1//1 2//1
f 3//1 12//1 1//1
f 12//1 13//1 1//1
f 13//1 15//1 1//1
f 6//1 7//1 8//1
f 10//1 3//1 9//1
f 3//1 11//1 12//1
f 14//1 15//1 13//1
f 10//1 11//1 3//1
